<svg width="60" height="60" viewBox="0 0 60 60" fill="none" xmlns="http://www.w3.org/2000/svg">
<path d="M36.915 4.92212H22.149C20.7898 4.92212 19.688 6.02395 19.688 7.38312V12.3051C19.688 13.6643 20.7898 14.7661 22.149 14.7661H36.915C38.2742 14.7661 39.376 13.6643 39.376 12.3051V7.38312C39.376 6.02395 38.2742 4.92212 36.915 4.92212Z" stroke="#75543F" stroke-width="4.922" stroke-linecap="round" stroke-linejoin="round"/>
<path d="M39.376 9.84424H44.298C45.6034 9.84424 46.8553 10.3628 47.7784 11.2859C48.7014 12.2089 49.22 13.4608 49.22 14.7662V49.2202C49.22 50.5256 48.7014 51.7776 47.7784 52.7006C46.8553 53.6237 45.6034 54.1422 44.298 54.1422H14.766C13.4606 54.1422 12.2087 53.6237 11.2856 52.7006C10.3626 51.7776 9.84399 50.5256 9.84399 49.2202V14.7662C9.84399 13.4608 10.3626 12.2089 11.2856 11.2859C12.2087 10.3628 13.4606 9.84424 14.766 9.84424H19.688M29.532 27.0712H39.376M29.532 39.3762H39.376M19.688 27.0712H19.7126M19.688 39.3762H19.7126" stroke="#75543F" stroke-width="4.922" stroke-linecap="round" stroke-linejoin="round"/>
</svg>
