<svg width="118" height="118" viewBox="0 0 118 118" fill="none" xmlns="http://www.w3.org/2000/svg">
<path d="M98.3334 49.1665H19.6667C17.0587 49.1665 14.5576 50.2025 12.7135 52.0466C10.8694 53.8907 9.83337 56.3919 9.83337 58.9998V98.3332M19.6667 49.1665V29.4998C19.6667 26.8919 20.7027 24.3907 22.5468 22.5466C24.3909 20.7025 26.8921 19.6665 29.5 19.6665H88.5C91.108 19.6665 93.6091 20.7025 95.4533 22.5466C97.2974 24.3907 98.3334 26.8919 98.3334 29.4998V49.1665M98.3334 49.1665C100.941 49.1665 103.442 50.2025 105.287 52.0466C107.131 53.8907 108.167 56.3919 108.167 58.9998V98.3332M59 19.6665V49.1665M9.83337 88.4998H108.167" stroke="#E3CE9B" stroke-width="9.83333" stroke-linecap="round" stroke-linejoin="round"/>
</svg>
