<svg width="60" height="60" viewBox="0 0 60 60" fill="none" xmlns="http://www.w3.org/2000/svg">
<path d="M29.532 29.5319H29.5566M39.376 14.7659V9.84387C39.376 8.53848 38.8574 7.28655 37.9344 6.3635C37.0113 5.44044 35.7594 4.92188 34.454 4.92188H24.61C23.3046 4.92188 22.0527 5.44044 21.1296 6.3635C20.2066 7.28655 19.688 8.53848 19.688 9.84387V14.7659M54.142 31.9929C46.8397 36.8139 38.2822 39.384 29.532 39.384C20.7818 39.384 12.2243 36.8139 4.92201 31.9929" stroke="#75543F" stroke-width="4.922" stroke-linecap="round" stroke-linejoin="round"/>
<path d="M49.22 14.7661H9.84401C7.12567 14.7661 4.92201 16.9698 4.92201 19.6881V44.2981C4.92201 47.0165 7.12567 49.2201 9.84401 49.2201H49.22C51.9384 49.2201 54.142 47.0165 54.142 44.2981V19.6881C54.142 16.9698 51.9384 14.7661 49.22 14.7661Z" stroke="#75543F" stroke-width="4.922" stroke-linecap="round" stroke-linejoin="round"/>
</svg>
