<svg width="60" height="60" viewBox="0 0 60 60" fill="none" xmlns="http://www.w3.org/2000/svg">
<path d="M31.0111 53.6472C35.5885 49.6948 49.22 36.8976 49.22 24.6099C49.22 19.3883 47.1457 14.3806 43.4535 10.6884C39.7613 6.99614 34.7536 4.92188 29.532 4.92188C24.3104 4.92188 19.3027 6.99614 15.6105 10.6884C11.9183 14.3806 9.84399 19.3883 9.84399 24.6099C9.84399 36.8976 23.4755 49.6948 28.0529 53.6472C28.4794 53.9679 28.9985 54.1413 29.532 54.1413C30.0655 54.1413 30.5846 53.9679 31.0111 53.6472Z" stroke="#75543F" stroke-width="4.922" stroke-linecap="round" stroke-linejoin="round"/>
<path d="M29.532 31.9931C33.6095 31.9931 36.915 28.6876 36.915 24.6101C36.915 20.5325 33.6095 17.2271 29.532 17.2271C25.4545 17.2271 22.149 20.5325 22.149 24.6101C22.149 28.6876 25.4545 31.9931 29.532 31.9931Z" stroke="#75543F" stroke-width="4.922" stroke-linecap="round" stroke-linejoin="round"/>
</svg>
