<svg width="27" height="27" viewBox="0 0 27 27" fill="none" xmlns="http://www.w3.org/2000/svg">
<path d="M14.1761 24.5239C16.2686 22.7171 22.5 16.8671 22.5 11.25C22.5 8.86305 21.5518 6.57387 19.864 4.88604C18.1761 3.19821 15.8869 2.25 13.5 2.25C11.1131 2.25 8.82387 3.19821 7.13604 4.88604C5.44821 6.57387 4.5 8.86305 4.5 11.25C4.5 16.8671 10.7314 22.7171 12.8239 24.5239C13.0188 24.6705 13.2561 24.7497 13.5 24.7497C13.7439 24.7497 13.9812 24.6705 14.1761 24.5239Z" stroke="#E3CE9B" stroke-width="1.5" stroke-linecap="round" stroke-linejoin="round"/>
<path d="M13.5 14.625C15.364 14.625 16.875 13.114 16.875 11.25C16.875 9.38604 15.364 7.875 13.5 7.875C11.636 7.875 10.125 9.38604 10.125 11.25C10.125 13.114 11.636 14.625 13.5 14.625Z" stroke="#E3CE9B" stroke-width="1.5" stroke-linecap="round" stroke-linejoin="round"/>
</svg>
