<svg width="18" height="18" viewBox="0 0 18 18" fill="none" xmlns="http://www.w3.org/2000/svg">
<g id="phone 2" clip-path="url(#clip0_1_48)">
<path id="Vector" fill-rule="evenodd" clip-rule="evenodd" d="M17.5495 14.7805C17.55 16.3643 16.2236 17.6305 14.6421 17.546C11.4195 17.3739 7.90275 15.7956 5.05484 12.9476C2.20487 10.0993 0.626216 6.5809 0.454417 3.35734C0.370151 1.7762 1.63563 0.450001 3.21901 0.450001H5.01037C5.44539 0.450001 5.70386 0.818133 5.80242 1.24206L6.58127 4.6256C6.68072 5.05766 6.54834 5.51035 6.23177 5.82075L5.41192 6.6246C4.82555 7.19954 4.73202 8.11091 5.18998 8.79256C5.7026 9.55558 6.30911 10.296 7.00538 10.9935C7.70184 11.69 8.4428 12.2967 9.20646 12.8094C9.88812 13.267 10.7992 13.1735 11.3741 12.5872L12.1781 11.7671C12.4885 11.4506 12.9412 11.3182 13.3733 11.4176L16.7568 12.1965C17.1808 12.295 17.5489 12.5534 17.5489 12.9885L17.5495 14.7805Z" fill="#E3CE9B"/>
</g>
<defs>
<clipPath id="clip0_1_48">
<rect width="18" height="18" fill="white"/>
</clipPath>
</defs>
</svg>
