<svg width="27" height="27" viewBox="0 0 27 27" fill="none" xmlns="http://www.w3.org/2000/svg">
<path d="M13.5 24.75C19.7132 24.75 24.75 19.7132 24.75 13.5C24.75 7.2868 19.7132 2.25 13.5 2.25C7.2868 2.25 2.25 7.2868 2.25 13.5C2.25 19.7132 7.2868 24.75 13.5 24.75Z" stroke="#E3CE9B" stroke-width="1.5" stroke-linecap="round" stroke-linejoin="round"/>
<path d="M18 9H11.25C10.6533 9 10.081 9.23705 9.65901 9.65901C9.23705 10.081 9 10.6533 9 11.25C9 11.8467 9.23705 12.419 9.65901 12.841C10.081 13.2629 10.6533 13.5 11.25 13.5H15.75C16.3467 13.5 16.919 13.7371 17.341 14.159C17.7629 14.581 18 15.1533 18 15.75C18 16.3467 17.7629 16.919 17.341 17.341C16.919 17.7629 16.3467 18 15.75 18H9M13.5 20.25V6.75" stroke="#E3CE9B" stroke-width="1.5" stroke-linecap="round" stroke-linejoin="round"/>
</svg>
