<svg width="17" height="17" viewBox="0 0 17 17" fill="none" xmlns="http://www.w3.org/2000/svg">
<path d="M8.43424 14.5905C9.6792 13.5156 13.3866 10.035 13.3866 6.69305C13.3866 5.2729 12.8225 3.91092 11.8183 2.90672C10.8141 1.90253 9.45212 1.33838 8.03197 1.33838C6.61183 1.33838 5.24985 1.90253 4.24565 2.90672C3.24146 3.91092 2.67731 5.2729 2.67731 6.69305C2.67731 10.035 6.38474 13.5156 7.6297 14.5905C7.74568 14.6777 7.88686 14.7249 8.03197 14.7249C8.17708 14.7249 8.31826 14.6777 8.43424 14.5905Z" stroke="#75543F" stroke-width="1.33867" stroke-linecap="round" stroke-linejoin="round"/>
<path d="M8.03199 8.70155C9.14097 8.70155 10.04 7.80253 10.04 6.69355C10.04 5.58456 9.14097 4.68555 8.03199 4.68555C6.923 4.68555 6.02399 5.58456 6.02399 6.69355C6.02399 7.80253 6.923 8.70155 8.03199 8.70155Z" stroke="#75543F" stroke-width="1.33867" stroke-linecap="round" stroke-linejoin="round"/>
</svg>
