<svg width="26" height="26" viewBox="0 0 26 26" fill="none" xmlns="http://www.w3.org/2000/svg">
<g clip-path="url(#clip0_34_262)">
<path d="M24.6301 19.076H20.597V15.0514C20.597 14.896 20.5487 14.7518 20.4664 14.6324C20.3328 14.4342 20.1063 14.3038 19.8494 14.3038H15.8205V10.2835C15.8205 10.1276 15.7719 9.98298 15.6891 9.8635C15.5555 9.66586 15.3294 9.53592 15.0728 9.53592H11.044V5.51561C11.044 5.3601 10.9956 5.21574 10.9132 5.0964C10.7797 4.89832 10.5532 4.76799 10.2963 4.76799H6.26319V0.743364C6.26319 0.332829 5.93036 0 5.51983 0H0.743364C0.332829 0 0 0.332829 0 0.743364L4.95576e-05 24.6301C4.95576e-05 24.8275 0.0785488 25.0168 0.218252 25.1562C0.357657 25.2954 0.546521 25.3735 0.743463 25.3735H0.744801L24.6315 25.3307C25.0416 25.3299 25.3735 24.9974 25.3735 24.5873V19.8194C25.3735 19.4088 25.0407 19.076 24.6301 19.076ZM23.8868 23.8453L1.48678 23.8854L1.48673 1.48673H4.77651V5.5113C4.77651 5.92184 5.10934 6.25467 5.51988 6.25467H9.55728V10.2792C9.55728 10.6898 9.89011 11.0226 10.3006 11.0226H14.3338V15.0472C14.3338 15.4577 14.6666 15.7905 15.0772 15.7905H19.1103V19.8194C19.1103 20.2299 19.4431 20.5627 19.8537 20.5627H23.8868V23.8453Z" fill="#C4B387"/>
<path d="M21.218 8.71842H19.4857C19.0751 8.71842 18.7423 9.05125 18.7423 9.46178C18.7423 9.87232 19.0751 10.2051 19.4857 10.2051H23.0142C23.4247 10.2051 23.7575 9.87232 23.7575 9.46178V5.93957C23.7575 5.52904 23.4247 5.19621 23.0142 5.19621C22.6036 5.19621 22.2708 5.52904 22.2708 5.93957V7.66859L16.4161 1.82515C16.1255 1.53514 15.6548 1.53554 15.3648 1.82609C15.0747 2.11665 15.0752 2.58735 15.3657 2.87736L21.218 8.71842Z" fill="#C4B387"/>
</g>
<defs>
<clipPath id="clip0_34_262">
<rect width="25.3735" height="25.3735" fill="white"/>
</clipPath>
</defs>
</svg>
