<svg width="26" height="26" viewBox="0 0 26 26" fill="none" xmlns="http://www.w3.org/2000/svg">
<g clip-path="url(#clip0_34_245)">
<path d="M23.1434 0H21.6567C21.2461 0 20.9133 0.332829 20.9133 0.743364V2.97346H2.23009C1.00042 2.97346 0 3.97388 0 5.2035V23.1434C0 24.3731 1.00042 25.3735 2.23009 25.3735H3.71682C4.12736 25.3735 4.46018 25.0407 4.46018 24.6301V23.8868H23.1434C24.3731 23.8868 25.3735 22.8863 25.3735 21.6567V2.23009C25.3735 1.00042 24.3731 0 23.1434 0ZM22.4 1.48673H23.1434C23.5533 1.48673 23.8868 1.8202 23.8868 2.23009C23.8868 2.63998 23.5533 2.97346 23.1434 2.97346H22.4V1.48673ZM2.97346 23.8868H2.23009C1.8202 23.8868 1.48673 23.5533 1.48673 23.1434V7.30628C1.7193 7.38874 1.96957 7.43364 2.23009 7.43364H2.97346V23.8868ZM23.1434 22.4H4.46018V6.69028C4.46018 6.27974 4.12736 5.94691 3.71682 5.94691H2.23009C1.8202 5.94691 1.48673 5.61344 1.48673 5.20355C1.48673 4.79366 1.8202 4.46018 2.23009 4.46018H23.1434C23.404 4.46018 23.6541 4.41484 23.8868 4.33233V21.6567C23.8868 22.0666 23.5533 22.4 23.1434 22.4Z" fill="#C4B387"/>
<path d="M21.6567 5.94678H6.69028C6.27974 5.94678 5.94691 6.27961 5.94691 6.69014V20.1698C5.94691 20.5803 6.27974 20.9132 6.69028 20.9132H9.66373C10.0743 20.9132 10.4071 20.5803 10.4071 20.1698C10.4071 19.7593 10.0743 19.4264 9.66373 19.4264H7.43364V13.43H8.17701C8.58754 13.43 8.92037 13.0971 8.92037 12.6866C8.92037 12.2761 8.58754 11.9432 8.17701 11.9432H7.43364V7.43351H11.9434L11.9434 11.9432H11.1505C10.7399 11.9432 10.4071 12.2761 10.4071 12.6866C10.4071 13.0971 10.7399 13.43 11.1505 13.43H14.9168V14.1733C14.9168 14.5839 15.2497 14.9167 15.6602 14.9167C16.0707 14.9167 16.4036 14.5839 16.4036 14.1733V12.6866C16.4036 12.2761 16.0707 11.9432 15.6602 11.9432H13.4297L13.4296 7.43351H20.9133V11.9432H18.6337C18.2231 11.9432 17.8903 12.2761 17.8903 12.6866C17.8903 13.0971 18.2231 13.43 18.6337 13.43H20.9133V19.4264H16.4036V17.1468C16.4036 16.7363 16.0707 16.4034 15.6602 16.4034C15.2497 16.4034 14.9168 16.7363 14.9168 17.1468V19.4264H12.6867C12.2762 19.4264 11.9434 19.7593 11.9434 20.1698C11.9434 20.5803 12.2762 20.9132 12.6867 20.9132H21.6567C22.0672 20.9132 22.4 20.5803 22.4 20.1698V6.69014C22.4 6.27961 22.0672 5.94678 21.6567 5.94678Z" fill="#C4B387"/>
</g>
<defs>
<clipPath id="clip0_34_245">
<rect width="25.3735" height="25.3735" fill="white"/>
</clipPath>
</defs>
</svg>
