<svg width="26" height="26" viewBox="0 0 26 26" fill="none" xmlns="http://www.w3.org/2000/svg">
<g clip-path="url(#clip0_34_265)">
<path d="M9.70536 19.6441C9.29554 19.6441 8.96199 19.3106 8.96199 18.9007C8.96199 18.4901 8.62922 18.1574 8.21863 18.1574C7.80804 18.1574 7.47527 18.4901 7.47527 18.9007C7.47527 19.8727 8.10054 20.7009 8.96993 21.0056V21.6564C8.96993 22.067 9.3027 22.3998 9.71329 22.3998C10.1239 22.3998 10.4567 22.067 10.4567 21.6564V21.0002C11.3177 20.6912 11.9355 19.8669 11.9355 18.9007C11.9355 17.6711 10.935 16.6706 9.70536 16.6706C9.29554 16.6706 8.96199 16.3371 8.96199 15.9273C8.96199 15.5173 9.29554 15.1839 9.70536 15.1839C10.1152 15.1839 10.4487 15.5173 10.4487 15.9273C10.4487 16.3379 10.7815 16.6706 11.1921 16.6706C11.6027 16.6706 11.9355 16.3379 11.9355 15.9273C11.9355 14.9611 11.3177 14.1368 10.4567 13.8277V12.736C10.4567 12.3254 10.1239 11.9927 9.71329 11.9927C9.3027 11.9927 8.96993 12.3254 8.96993 12.736V13.8222C8.10054 14.1269 7.47527 14.9551 7.47527 15.9273C7.47527 17.1569 8.47571 18.1574 9.70536 18.1574C10.1152 18.1574 10.4487 18.4907 10.4487 18.9007C10.4487 19.3106 10.1152 19.6441 9.70536 19.6441Z" fill="#C4B387"/>
<path d="M3.02998 24.1595C4.57692 24.9877 6.70073 25.3735 9.71329 25.3735C12.1645 25.3735 14.0093 25.1195 15.4426 24.5794C15.852 25.0645 16.464 25.3735 17.1469 25.3735H23.1434C24.373 25.3735 25.3735 24.373 25.3735 23.1434C25.3735 22.5727 25.1576 22.0516 24.8038 21.6567C25.1578 21.2618 25.3735 20.7406 25.3735 20.1699C25.3735 19.5993 25.1576 19.0781 24.8038 18.6832C25.1578 18.2883 25.3735 17.7672 25.3735 17.1965C25.3735 16.6258 25.1576 16.1047 24.8038 15.7098C25.1578 15.3148 25.3735 14.7937 25.3735 14.223C25.3735 12.9934 24.373 11.9929 23.1434 11.9929H17.1469C17.0745 11.9929 17.0029 11.9966 16.9322 12.0036C16.1862 11.0999 15.3119 10.3422 14.3487 9.76111C14.7016 9.36658 14.9168 8.84603 14.9168 8.27612C14.9168 7.38776 14.3945 6.61923 13.6409 6.26091L14.8803 2.46065C14.954 2.23416 14.9149 1.98618 14.7751 1.79356C14.6352 1.60075 14.4116 1.48673 14.1735 1.48673H11.8156C11.5086 0.621406 10.6824 0 9.71329 0C8.74401 0 7.91741 0.621406 7.61058 1.48673H5.25311C5.015 1.48673 4.79141 1.60075 4.65145 1.79356C4.51168 1.98618 4.47257 2.23416 4.54633 2.46065L5.78566 6.26091C5.03203 6.61923 4.50974 7.38776 4.50974 8.27612C4.50974 8.84642 4.7252 9.36736 5.07869 9.76207C2.09613 11.5622 0 14.9811 0 18.6832C0 21.2407 1.01942 23.083 3.02998 24.1595ZM23.8868 17.1965C23.8868 17.6063 23.5532 17.9399 23.1434 17.9399H17.1469C16.7371 17.9399 16.4036 17.6063 16.4036 17.1965C16.4036 16.7867 16.7371 16.4531 17.1469 16.4531H23.1434C23.5532 16.4531 23.8868 16.7867 23.8868 17.1965ZM23.8868 20.1699C23.8868 20.5798 23.5532 20.9133 23.1434 20.9133H17.1469C16.7371 20.9133 16.4036 20.5798 16.4036 20.1699C16.4036 19.7601 16.7371 19.4266 17.1469 19.4266H23.1434C23.5532 19.4266 23.8868 19.7601 23.8868 20.1699ZM23.1434 23.8868H17.1469C16.7371 23.8868 16.4036 23.5532 16.4036 23.1434C16.4036 22.7336 16.7371 22.4 17.1469 22.4H23.1434C23.5532 22.4 23.8868 22.7336 23.8868 23.1434C23.8868 23.5532 23.5532 23.8868 23.1434 23.8868ZM23.8868 14.223C23.8868 14.6329 23.5532 14.9664 23.1434 14.9664H17.1469C16.7371 14.9664 16.4036 14.6329 16.4036 14.223C16.4036 13.8132 16.7371 13.4797 17.1469 13.4797H23.1434C23.5532 13.4797 23.8868 13.8132 23.8868 14.223ZM12.6655 9.01948H6.76132C6.75474 9.01929 6.74816 9.01948 6.74158 9.01948H6.73983C6.33002 9.01948 5.99647 8.68594 5.99647 8.27612C5.99647 7.86708 6.32866 7.53411 6.73751 7.53295H6.73964C6.74138 7.53295 6.74312 7.53276 6.74487 7.53276H12.6815C12.6833 7.53276 12.6852 7.53295 12.6869 7.53295H12.6891C13.0979 7.53411 13.4301 7.86708 13.4301 8.27612C13.4301 8.68594 13.0966 9.01948 12.6867 9.01948H12.6844C12.6782 9.01948 12.6718 9.01929 12.6655 9.01948ZM8.22656 2.97346C8.63715 2.97346 8.96993 2.64068 8.96993 2.23009C8.96993 1.82027 9.30347 1.48673 9.71329 1.48673C10.1231 1.48673 10.4567 1.82027 10.4567 2.23009V3.71682C10.4567 4.12741 10.7894 4.46018 11.2 4.46018C11.6106 4.46018 11.9434 4.12741 11.9434 3.71682V2.97346H13.1492L12.1472 6.04603H7.27935L6.27736 2.97346H8.22656ZM6.88483 10.5062H12.5388C13.6645 10.9764 14.6905 11.7169 15.5462 12.6726C15.1571 13.0743 14.9168 13.621 14.9168 14.223C14.9168 14.7937 15.1327 15.3148 15.4866 15.7098C15.1327 16.1047 14.9168 16.6258 14.9168 17.1965C14.9168 17.7672 15.1327 18.2883 15.4866 18.6832C15.1327 19.0781 14.9168 19.5993 14.9168 20.1699C14.9168 20.7406 15.1327 21.2618 15.4866 21.6567C15.1327 22.0516 14.9168 22.5727 14.9168 23.1434C14.9168 23.1587 14.9176 23.1738 14.918 23.1889C13.6605 23.6638 11.9856 23.8868 9.71329 23.8868C6.9551 23.8868 5.0543 23.5569 3.73173 22.8488C2.20009 22.0287 1.48673 20.7052 1.48673 18.6832C1.48673 15.177 3.69978 11.8357 6.88483 10.5062Z" fill="#C4B387"/>
</g>
<defs>
<clipPath id="clip0_34_265">
<rect width="25.3735" height="25.3735" fill="white"/>
</clipPath>
</defs>
</svg>
