<svg width="26" height="26" viewBox="0 0 26 26" fill="none" xmlns="http://www.w3.org/2000/svg">
<g clip-path="url(#clip0_34_259)">
<path d="M23.3234 13.3199H22.74V8.77495H24.6301C24.858 8.77495 25.0734 8.67042 25.2143 8.49116C25.3553 8.31209 25.4062 8.07824 25.3526 7.85678L24.216 3.15791C24.1353 2.82437 23.8366 2.58936 23.4934 2.58936H20.4996C20.1564 2.58936 19.8579 2.82437 19.7771 3.15791L18.6404 7.85678C18.5868 8.07824 18.6379 8.31209 18.7788 8.49116C18.9198 8.67042 19.135 8.77495 19.3631 8.77495H21.2532V10.5584C20.9137 10.3494 20.5143 10.2284 20.0871 10.2284H5.2862C4.05656 10.2284 3.05611 11.2288 3.05611 12.4585V13.3199H2.05006C0.919719 13.3199 0 14.2396 0 15.37V22.0812C0 23.2117 0.919719 24.1314 2.05006 24.1314H23.3234C24.4538 24.1314 25.3735 23.2117 25.3735 22.0812V15.37C25.3735 14.2396 24.4538 13.3199 23.3234 13.3199ZM2.05006 22.6447C1.73955 22.6447 1.48673 22.3919 1.48673 22.0812V15.37C1.48673 15.0593 1.73955 14.8066 2.05006 14.8066H4.70371C5.01441 14.8066 5.26704 15.0593 5.26704 15.37V22.0812C5.26704 22.3919 5.01441 22.6447 4.70371 22.6447H2.05006ZM5.2862 11.7151H20.0873C20.4971 11.7151 20.8306 12.0487 20.8306 12.4585V13.3199H20.6698C19.5392 13.3199 18.6197 14.2396 18.6197 15.37V17.9822H6.75377V15.37C6.75377 14.2396 5.83405 13.3199 4.70371 13.3199H4.54284V12.4585C4.54284 12.0487 4.87639 11.7151 5.2862 11.7151ZM6.75377 22.0812V19.4689H18.6197V22.0812C18.6197 22.2767 18.6478 22.4654 18.6991 22.6447H6.6744C6.7257 22.4654 6.75377 22.2767 6.75377 22.0812ZM20.1064 22.0812V15.37C20.1064 15.0593 20.3591 14.8066 20.6698 14.8066H23.3234C23.6339 14.8066 23.8867 15.0593 23.8867 15.37V22.0812C23.8867 22.3919 23.6339 22.6447 23.3234 22.6447H20.6698C20.3591 22.6447 20.1064 22.3919 20.1064 22.0812ZM22.9084 4.07608L23.6854 7.28803H20.3076L21.0846 4.07608H22.9084Z" fill="#C4B387"/>
<path d="M1.68923 7.79649H14.2699C14.6805 7.79649 15.0132 7.46372 15.0132 7.05312V2.03194C15.0132 1.62135 14.6805 1.28857 14.2699 1.28857H1.68923C1.27863 1.28857 0.945862 1.62135 0.945862 2.03194V7.05312C0.945862 7.46372 1.27863 7.79649 1.68923 7.79649ZM2.43259 2.7753H13.5265V6.30976H2.43259V2.7753Z" fill="#C4B387"/>
</g>
<defs>
<clipPath id="clip0_34_259">
<rect width="25.3735" height="25.3735" fill="white"/>
</clipPath>
</defs>
</svg>
