<svg width="23" height="24" viewBox="0 0 23 24" fill="none" xmlns="http://www.w3.org/2000/svg">
<g clip-path="url(#clip0_1_156)">
<path d="M22.7184 11.5112L17.5208 6.1057C17.3341 5.87896 17.006 5.85253 16.788 6.04675C16.57 6.24093 16.5446 6.58218 16.7313 6.80892C16.7487 6.83005 16.7677 6.84979 16.788 6.86787L21.0968 11.3544H5.09347C4.80644 11.3544 4.57373 11.5965 4.57373 11.895C4.57373 12.1936 4.80644 12.4355 5.09347 12.4355H21.0968L16.788 16.9167C16.57 17.1108 16.5446 17.4521 16.7313 17.6788C16.9181 17.9056 17.2461 17.932 17.4642 17.7378C17.4845 17.7197 17.5035 17.7 17.5208 17.6788L22.7185 12.2733C22.9199 12.0626 22.9199 11.7221 22.7184 11.5112Z" fill="white"/>
</g>
<defs>
<clipPath id="clip0_1_156">
<rect width="22.8698" height="23.7846" fill="white"/>
</clipPath>
</defs>
</svg>
