<svg width="35" height="35" viewBox="0 0 35 35" fill="none" xmlns="http://www.w3.org/2000/svg">
<path d="M33.4584 33.4584L22.7917 22.7917M1.45837 13.9028C1.45837 15.537 1.78026 17.1553 2.40565 18.6651C3.03104 20.1749 3.94769 21.5468 5.10327 22.7024C6.25884 23.8579 7.63071 24.7746 9.14054 25.4C10.6504 26.0254 12.2686 26.3473 13.9028 26.3473C15.537 26.3473 17.1553 26.0254 18.6651 25.4C20.1749 24.7746 21.5468 23.8579 22.7024 22.7024C23.8579 21.5468 24.7746 20.1749 25.4 18.6651C26.0254 17.1553 26.3473 15.537 26.3473 13.9028C26.3473 12.2686 26.0254 10.6504 25.4 9.14054C24.7746 7.63071 23.8579 6.25884 22.7024 5.10327C21.5468 3.94769 20.1749 3.03104 18.6651 2.40565C17.1553 1.78026 15.537 1.45837 13.9028 1.45837C12.2686 1.45837 10.6504 1.78026 9.14054 2.40565C7.63071 3.03104 6.25884 3.94769 5.10327 5.10327C3.94769 6.25884 3.03104 7.63071 2.40565 9.14054C1.78026 10.6504 1.45837 12.2686 1.45837 13.9028Z" stroke="white" stroke-width="2.91667" stroke-linecap="round" stroke-linejoin="round"/>
</svg>
